<?xml version="1.0" encoding="UTF-8"?>
<svg id="_图层_2" data-name="图层 2" xmlns="http://www.w3.org/2000/svg" viewBox="0 0 263.11 309.07">
  <defs>
    <style>
      .cls-1 {
        fill: #fff;
      }

      .cls-1, .cls-2 {
        stroke-miterlimit: 8;
        stroke-width: .86px;
      }

      .cls-1, .cls-2, .cls-3 {
        stroke: #000;
      }

      .cls-2, .cls-3 {
        fill: none;
      }

      .cls-4, .cls-5, .cls-6 {
        fill: #fde598;
      }

      .cls-4, .cls-6 {
        stroke: #221e1f;
      }

      .cls-5, .cls-6 {
        fill-rule: evenodd;
      }

      .cls-3 {
        stroke-miterlimit: 10;
      }

      .cls-7 {
        font-family: ArialMT, Arial;
        font-size: 9px;
      }
    </style>
  </defs>
  <g id="Layer_1" data-name="Layer 1">
    <path class="cls-5" d="M1.49,138.2c0-2.26,2.09-4.09,4.66-4.09h251.23c2.57,0,4.66,1.83,4.66,4.09v52.36c0,2.26-2.09,4.09-4.66,4.09H6.14c-2.57,0-4.66-1.83-4.66-4.09v-52.36Z"/>
    <path class="cls-2" d="M1.11,138.03c0-2.26,2.09-4.1,4.67-4.1h251.94c2.58,0,4.67,1.84,4.67,4.1v52.5c0,2.26-2.09,4.1-4.67,4.1H5.79c-2.58,0-4.67-1.84-4.67-4.1v-52.5Z"/>
    <path class="cls-1" d="M9.63,145.94c0-3.76,2.99-6.8,6.67-6.8h59.04c3.68,0,6.67,3.04,6.67,6.8v27.2c0,3.76-2.99,6.8-6.67,6.8H16.31c-3.68,0-6.67-3.04-6.67-6.8v-27.2Z"/>
    <path class="cls-1" d="M95.5,145.94c0-3.76,2.99-6.8,6.67-6.8h59.04c3.68,0,6.67,3.04,6.67,6.8v27.2c0,3.76-2.99,6.8-6.67,6.8h-59.04c-3.68,0-6.67-3.04-6.67-6.8v-27.2Z"/>
    <path class="cls-1" d="M181.7,145.94c0-3.76,2.99-6.8,6.67-6.8h59.04c3.68,0,6.67,3.04,6.67,6.8v27.2c0,3.76-2.99,6.8-6.67,6.8h-59.04c-3.68,0-6.67-3.04-6.67-6.8v-27.2Z"/>
    <text class="cls-7" transform="translate(26.13 151.62) scale(.95 1)"><tspan x="0" y="0">Aggregate</tspan><tspan x=".26" y="10.8">reads with</tspan><tspan x="-12.25" y="21.6">plasmid barcode</tspan></text>
    <text class="cls-7" transform="translate(104.17 157.02) scale(.95 1)"><tspan x="0" y="0">CRISPResso2</tspan><tspan x="-1.76" y="10.8">editing analysis</tspan></text>
    <text class="cls-7" transform="translate(195.82 151.62) scale(.95 1)"><tspan x="0" y="0">Dedud and </tspan><tspan x="-5.75" y="10.8">deduplicate by</tspan><tspan x="-9.75" y="21.6">plasmid barcode</tspan></text>
    <g>
      <path class="cls-6" d="M95.72,274.57c0-3.76,2.99-6.8,6.67-6.8h59.04c3.68,0,6.67,3.04,6.67,6.8v27.2c0,3.76-2.99,6.8-6.67,6.8h-59.04c-3.68,0-6.67-3.04-6.67-6.8v-27.2Z"/>
      <path class="cls-4" d="M95.72,274.57c0-3.76,2.99-6.8,6.67-6.8h59.04c3.68,0,6.67,3.04,6.67,6.8v27.2c0,3.76-2.99,6.8-6.67,6.8h-59.04c-3.68,0-6.67-3.04-6.67-6.8v-27.2Z"/>
    </g>
    <text class="cls-7" transform="translate(101.55 285.44) scale(.95 1)"><tspan x="0" y="0">Off-target report</tspan><tspan x="9.75" y="10.8">and figures</tspan></text>
    <text class="cls-7" transform="translate(63.63 190.09) scale(.95 1)"><tspan x="0" y="0">UMI-based editing outcome analysis</tspan></text>
    <path class="cls-5" d="M.8,71.44c0-2.26,2.09-4.09,4.66-4.09h251.23c2.57,0,4.66,1.83,4.66,4.09v52.36c0,2.26-2.09,4.09-4.66,4.09H5.46c-2.57,0-4.66-1.83-4.66-4.09v-52.36Z"/>
    <path class="cls-2" d="M.43,71.28c0-2.26,2.09-4.1,4.67-4.1h251.94c2.58,0,4.67,1.84,4.67,4.1v52.5c0,2.26-2.09,4.1-4.67,4.1H5.1c-2.58,0-4.67-1.84-4.67-4.1v-52.5Z"/>
    <path class="cls-1" d="M9.63,79.19c0-3.76,2.99-6.8,6.67-6.8h59.04c3.68,0,6.67,3.04,6.67,6.8v27.2c0,3.76-2.99,6.8-6.67,6.8H16.31c-3.68,0-6.67-3.04-6.67-6.8v-27.2Z"/>
    <path class="cls-1" d="M95.5,79.19c0-3.76,2.99-6.8,6.67-6.8h59.04c3.68,0,6.67,3.04,6.67,6.8v27.2c0,3.76-2.99,6.8-6.67,6.8h-59.04c-3.68,0-6.67-3.04-6.67-6.8v-27.2Z"/>
    <path class="cls-1" d="M181.7,79.19c0-3.76,2.99-6.8,6.67-6.8h59.04c3.68,0,6.67,3.04,6.67,6.8v27.2c0,3.76-2.99,6.8-6.67,6.8h-59.04c-3.68,0-6.67-3.04-6.67-6.8v-27.2Z"/>
    <text class="cls-7" transform="translate(105.15 123.25) scale(.95 1)"><tspan x="0" y="0">Preprocessing</tspan></text>
    <text class="cls-7" transform="translate(23.52 90.08) scale(.95 1)"><tspan x="0" y="0">Demultiplex</tspan><tspan x="12.25" y="10.8">reads</tspan></text>
    <text class="cls-7" transform="translate(101.9 90.08) scale(.95 1)"><tspan x="0" y="0">Extract plasmid</tspan><tspan x="14.5" y="10.8">barcode</tspan></text>
    <text class="cls-7" transform="translate(187.05 90.08) scale(.95 1)"><tspan x="0" y="0">Classify plasmid</tspan><tspan x="16.25" y="10.8">barcode</tspan></text>
    <g>
      <path class="cls-5" d="M1.42,204.95c0-2.26,2.09-4.09,4.66-4.09h251.23c2.57,0,4.66,1.83,4.66,4.09v52.36c0,2.26-2.09,4.09-4.66,4.09H6.08c-2.57,0-4.66-1.83-4.66-4.09v-52.36Z"/>
      <path class="cls-2" d="M1.05,204.79c0-2.26,2.09-4.1,4.67-4.1h251.94c2.58,0,4.67,1.84,4.67,4.1v52.5c0,2.26-2.09,4.1-4.67,4.1H5.72c-2.58,0-4.67-1.84-4.67-4.1v-52.5Z"/>
    </g>
    <path class="cls-1" d="M9.63,212.69c0-3.76,2.99-6.8,6.67-6.8h59.04c3.68,0,6.67,3.04,6.67,6.8v27.2c0,3.76-2.99,6.8-6.67,6.8H16.31c-3.68,0-6.67-3.04-6.67-6.8v-27.2Z"/>
    <path class="cls-1" d="M95.5,212.69c0-3.76,2.99-6.8,6.67-6.8h59.04c3.68,0,6.67,3.04,6.67,6.8v27.2c0,3.76-2.99,6.8-6.67,6.8h-59.04c-3.68,0-6.67-3.04-6.67-6.8v-27.2Z"/>
    <path class="cls-1" d="M181.7,212.69c0-3.76,2.99-6.8,6.67-6.8h59.04c3.68,0,6.67,3.04,6.67,6.8v27.2c0,3.76-2.99,6.8-6.67,6.8h-59.04c-3.68,0-6.67-3.04-6.67-6.8v-27.2Z"/>
    <text class="cls-7" transform="translate(60.3 256.54) scale(.95 1)"><tspan x="0" y="0">Statistical analysis on editing outcome</tspan></text>
    <text class="cls-7" transform="translate(29.22 217.48) scale(.95 1)"><tspan x="0" y="0">Estimate</tspan><tspan x="-13.52" y="10.8">indel proportion</tspan><tspan x="-7.01" y="21.6">for each site</tspan></text>
    <text class="cls-7" transform="translate(108.44 223.25) scale(.95 1)"><tspan x="0" y="0">Monte Carlo</tspan><tspan x="-5.25" y="10.8">power analysis</tspan></text>
    <text class="cls-7" transform="translate(199.62 217.82) scale(.95 1)"><tspan x="0" y="0">Annotate </tspan><tspan x="-8.5" y="10.8">significant off-</tspan><tspan x="-2.74" y="21.6">target sites</tspan></text>
    <path class="cls-5" d="M1.76,4.69C1.76,2.43,3.85.6,6.42.6h251.23c2.57,0,4.66,1.83,4.66,4.09v52.36c0,2.26-2.09,4.09-4.66,4.09H6.42c-2.57,0-4.66-1.83-4.66-4.09V4.69Z"/>
    <path class="cls-2" d="M1.39,4.53C1.39,2.27,3.48.43,6.06.43h251.94c2.58,0,4.67,1.84,4.67,4.1v52.5c0,2.26-2.09,4.1-4.67,4.1H6.06c-2.58,0-4.67-1.84-4.67-4.1V4.53Z"/>
    <path class="cls-1" d="M9.63,12.44c0-3.76,2.99-6.8,6.67-6.8h59.04c3.68,0,6.67,3.04,6.67,6.8v27.2c0,3.76-2.99,6.8-6.67,6.8H16.31c-3.68,0-6.67-3.04-6.67-6.8V12.44Z"/>
    <path class="cls-1" d="M95.5,12.44c0-3.76,2.99-6.8,6.67-6.8h59.04c3.68,0,6.67,3.04,6.67,6.8v27.2c0,3.76-2.99,6.8-6.67,6.8h-59.04c-3.68,0-6.67-3.04-6.67-6.8V12.44Z"/>
    <path class="cls-1" d="M179.11,12.44c0-3.76,2.99-6.8,6.67-6.8h59.04c3.68,0,6.67,3.04,6.67,6.8v27.2c0,3.76-2.99,6.8-6.67,6.8h-59.04c-3.68,0-6.67-3.04-6.67-6.8V12.44Z"/>
    <text class="cls-7" transform="translate(122.94 56.42) scale(.95 1)"><tspan x="0" y="0">Input</tspan></text>
    <text class="cls-7" transform="translate(119.59 17.58) scale(.95 1)"><tspan x="0" y="0">Edited</tspan><tspan x="-7" y="10.8">integrants</tspan><tspan x="-5.24" y="21.6">(FASTQ)</tspan></text>
    <text class="cls-7" transform="translate(21.38 23.02) scale(.95 1)"><tspan x="0" y="0">Plasmid pool</tspan><tspan x="7.77" y="10.8">(FASTQ)</tspan></text>
    <text class="cls-7" transform="translate(198.21 17.58) scale(.95 1)"><tspan x="0" y="0">Unedited</tspan><tspan x="-1.75" y="10.8">integrants</tspan><tspan x=".02" y="21.6">(FASTQ)</tspan></text>
    <g>
      <line class="cls-3" x1="131.04" y1="128.37" x2="131.04" y2="129.88"/>
      <polygon points="128.55 129.15 131.04 133.47 133.54 129.15 128.55 129.15"/>
    </g>
    <g>
      <line class="cls-3" x1="131.04" y1="194.75" x2="131.04" y2="196.56"/>
      <polygon points="128.55 195.83 131.04 200.15 133.54 195.83 128.55 195.83"/>
    </g>
    <g>
      <line class="cls-3" x1="131.04" y1="61.51" x2="131.04" y2="63.35"/>
      <polygon points="128.55 62.62 131.04 66.94 133.54 62.62 128.55 62.62"/>
    </g>
    <g>
      <line class="cls-3" x1="81.62" y1="92.79" x2="89.91" y2="92.79"/>
      <polygon points="88.72 94.53 95.22 92.79 88.72 91.05 88.72 94.53"/>
    </g>
    <g>
      <line class="cls-3" x1="81.62" y1="159.54" x2="89.91" y2="159.54"/>
      <polygon points="88.72 161.28 95.22 159.54 88.72 157.8 88.72 161.28"/>
    </g>
    <g>
      <line class="cls-3" x1="81.62" y1="226.29" x2="89.91" y2="226.29"/>
      <polygon points="88.72 228.04 95.22 226.29 88.72 224.55 88.72 228.04"/>
    </g>
    <g>
      <line class="cls-3" x1="168.01" y1="93.55" x2="176.29" y2="93.55"/>
      <polygon points="175.11 95.3 181.61 93.55 175.11 91.81 175.11 95.3"/>
    </g>
    <g>
      <line class="cls-3" x1="168.01" y1="160.3" x2="176.29" y2="160.3"/>
      <polygon points="175.11 162.05 181.61 160.3 175.11 158.56 175.11 162.05"/>
    </g>
    <g>
      <line class="cls-3" x1="168.01" y1="227.05" x2="176.29" y2="227.05"/>
      <polygon points="175.11 228.8 181.61 227.06 175.11 225.31 175.11 228.8"/>
    </g>
    <g>
      <line class="cls-3" x1="131.04" y1="261.71" x2="131.04" y2="263.52"/>
      <polygon points="128.55 262.79 131.04 267.11 133.54 262.79 128.55 262.79"/>
    </g>
  </g>
</svg>