<?xml version="1.0" encoding="UTF-8"?>
<svg id="_图层_2" xmlns="http://www.w3.org/2000/svg" version="1.1" viewBox="0 0 263.1 309.1">
  <!-- Generator: Adobe Illustrator 30.0.0, SVG Export Plug-In . SVG Version: 2.1.1 Build 123)  -->
  <defs>
    <style>
      .st0 {
        fill: #fff;
      }

      .st0, .st1, .st2 {
        stroke: #000;
      }

      .st0, .st2 {
        stroke-miterlimit: 8;
        stroke-width: .9px;
      }

      .st3, .st4 {
        isolation: isolate;
      }

      .st4 {
        font-family: ArialMT, Arial;
        font-size: 9px;
      }

      .st5, .st6 {
        stroke: #221e1f;
      }

      .st5, .st6, .st7 {
        fill: #fde598;
      }

      .st5, .st7 {
        fill-rule: evenodd;
      }

      .st1 {
        stroke-miterlimit: 10;
      }

      .st1, .st2 {
        fill: none;
      }
    </style>
  </defs>
  <path class="st7" d="M1,138.2c0-2.3,2.1-4.1,4.7-4.1h251.2c2.6,0,4.7,1.8,4.7,4.1v52.4c0,2.3-2.1,4.1-4.7,4.1H5.6c-2.6,0-4.7-1.8-4.7-4.1v-52.4h0Z"/>
  <path class="st2" d="M.6,138c0-2.3,2.1-4.1,4.7-4.1h251.9c2.6,0,4.7,1.8,4.7,4.1v52.5c0,2.3-2.1,4.1-4.7,4.1H5.3c-2.6,0-4.7-1.8-4.7-4.1v-52.5h0Z"/>
  <path class="st0" d="M9.6,145.9c0-3.8,3-6.8,6.7-6.8h59c3.7,0,6.7,3,6.7,6.8v27.2c0,3.8-3,6.8-6.7,6.8H16.3c-3.7,0-6.7-3-6.7-6.8v-27.2h0Z"/>
  <path class="st0" d="M95.5,145.9c0-3.8,3-6.8,6.7-6.8h59c3.7,0,6.7,3,6.7,6.8v27.2c0,3.8-3,6.8-6.7,6.8h-59c-3.7,0-6.7-3-6.7-6.8v-27.2Z"/>
  <path class="st0" d="M181.7,145.9c0-3.8,3-6.8,6.7-6.8h59c3.7,0,6.7,3,6.7,6.8v27.2c0,3.8-3,6.8-6.7,6.8h-59c-3.7,0-6.7-3-6.7-6.8v-27.2Z"/>
  <g class="st3">
    <g class="st3">
      <text class="st4" transform="translate(26.1 151.6) scale(.9 1)"><tspan x="0" y="0">Aggregate</tspan></text>
    </g>
    <g class="st3">
      <text class="st4" transform="translate(26.4 162.4) scale(.9 1)"><tspan x="0" y="0">reads with</tspan></text>
    </g>
    <g class="st3">
      <text class="st4" transform="translate(14.5 173.2) scale(.9 1)"><tspan x="0" y="0">plasmid barcode</tspan></text>
    </g>
  </g>
  <g class="st3">
    <g class="st3">
      <text class="st4" transform="translate(104.2 157) scale(.9 1)"><tspan x="0" y="0">CRISPResso2</tspan></text>
    </g>
    <g class="st3">
      <text class="st4" transform="translate(102.5 167.8) scale(.9 1)"><tspan x="0" y="0">editing analysis</tspan></text>
    </g>
  </g>
  <g class="st3">
    <g class="st3">
      <text class="st4" transform="translate(195.8 151.6) scale(.9 1)"><tspan x="0" y="0">Dedud and</tspan></text>
    </g>
    <g class="st3">
      <text class="st4" transform="translate(190.4 162.4) scale(.9 1)"><tspan x="0" y="0">deduplicate by</tspan></text>
    </g>
    <g class="st3">
      <text class="st4" transform="translate(186.6 173.2) scale(.9 1)"><tspan x="0" y="0">plasmid barcode</tspan></text>
    </g>
  </g>
  <g>
    <path class="st5" d="M95.7,274.6c0-3.8,3-6.8,6.7-6.8h59c3.7,0,6.7,3,6.7,6.8v27.2c0,3.8-3,6.8-6.7,6.8h-59c-3.7,0-6.7-3-6.7-6.8v-27.2Z"/>
    <path class="st6" d="M95.7,274.6c0-3.8,3-6.8,6.7-6.8h59c3.7,0,6.7,3,6.7,6.8v27.2c0,3.8-3,6.8-6.7,6.8h-59c-3.7,0-6.7-3-6.7-6.8v-27.2Z"/>
  </g>
  <g class="st3">
    <g class="st3">
      <text class="st4" transform="translate(101.5 285.4) scale(.9 1)"><tspan x="0" y="0">Off-target report</tspan></text>
    </g>
    <g class="st3">
      <text class="st4" transform="translate(110.8 296.2) scale(.9 1)"><tspan x="0" y="0">and figures</tspan></text>
    </g>
  </g>
  <g class="st3">
    <g class="st3">
      <text class="st4" transform="translate(42.7 190.1) scale(.9 1)"><tspan x="0" y="0">Plasmid-barcode-based editing outcome analysis</tspan></text>
    </g>
  </g>
  <path class="st7" d="M1,71.4c0-2.3,2.1-4.1,4.7-4.1h251.2c2.6,0,4.7,1.8,4.7,4.1v52.4c0,2.3-2.1,4.1-4.7,4.1H5.7c-2.6,0-4.7-1.8-4.7-4.1v-52.4Z"/>
  <path class="st2" d="M.6,71.3c0-2.3,2.1-4.1,4.7-4.1h251.9c2.6,0,4.7,1.8,4.7,4.1v52.5c0,2.3-2.1,4.1-4.7,4.1H5.3c-2.6,0-4.7-1.8-4.7-4.1,0,0,0-52.5,0-52.5Z"/>
  <path class="st0" d="M9.6,79.2c0-3.8,3-6.8,6.7-6.8h59c3.7,0,6.7,3,6.7,6.8v27.2c0,3.8-3,6.8-6.7,6.8H16.3c-3.7,0-6.7-3-6.7-6.8v-27.2h0Z"/>
  <path class="st0" d="M95.5,79.2c0-3.8,3-6.8,6.7-6.8h59c3.7,0,6.7,3,6.7,6.8v27.2c0,3.8-3,6.8-6.7,6.8h-59c-3.7,0-6.7-3-6.7-6.8v-27.2Z"/>
  <path class="st0" d="M181.7,79.2c0-3.8,3-6.8,6.7-6.8h59c3.7,0,6.7,3,6.7,6.8v27.2c0,3.8-3,6.8-6.7,6.8h-59c-3.7,0-6.7-3-6.7-6.8v-27.2Z"/>
  <g class="st3">
    <g class="st3">
      <text class="st4" transform="translate(105.1 123.3) scale(.9 1)"><tspan x="0" y="0">Preprocessing</tspan></text>
    </g>
  </g>
  <g class="st3">
    <g class="st3">
      <text class="st4" transform="translate(23.5 90.1) scale(.9 1)"><tspan x="0" y="0">Demultiplex</tspan></text>
    </g>
    <g class="st3">
      <text class="st4" transform="translate(35.2 100.9) scale(.9 1)"><tspan x="0" y="0">reads</tspan></text>
    </g>
  </g>
  <g class="st3">
    <g class="st3">
      <text class="st4" transform="translate(101.9 90.1) scale(.9 1)"><tspan x="0" y="0">Extract plasmid</tspan></text>
    </g>
    <g class="st3">
      <text class="st4" transform="translate(115.7 100.9) scale(.9 1)"><tspan x="0" y="0">barcode</tspan></text>
    </g>
  </g>
  <g class="st3">
    <g class="st3">
      <text class="st4" transform="translate(187 90.1) scale(.9 1)"><tspan x="0" y="0">Classify plasmid</tspan></text>
    </g>
    <g class="st3">
      <text class="st4" transform="translate(202.5 100.9) scale(.9 1)"><tspan x="0" y="0">barcode</tspan></text>
    </g>
  </g>
  <g>
    <path class="st7" d="M1,204.9c0-2.3,2.1-4.1,4.7-4.1h251.2c2.6,0,4.7,1.8,4.7,4.1v52.4c0,2.3-2.1,4.1-4.7,4.1H5.7c-2.6,0-4.7-1.8-4.7-4.1v-52.4Z"/>
    <path class="st2" d="M.6,204.8c0-2.3,2.1-4.1,4.7-4.1h251.9c2.6,0,4.7,1.8,4.7,4.1v52.5c0,2.3-2.1,4.1-4.7,4.1H5.3c-2.6,0-4.7-1.8-4.7-4.1v-52.5h0Z"/>
  </g>
  <path class="st0" d="M9.6,212.7c0-3.8,3-6.8,6.7-6.8h59c3.7,0,6.7,3,6.7,6.8v27.2c0,3.8-3,6.8-6.7,6.8H16.3c-3.7,0-6.7-3-6.7-6.8v-27.2h0Z"/>
  <path class="st0" d="M95.5,212.7c0-3.8,3-6.8,6.7-6.8h59c3.7,0,6.7,3,6.7,6.8v27.2c0,3.8-3,6.8-6.7,6.8h-59c-3.7,0-6.7-3-6.7-6.8v-27.2Z"/>
  <path class="st0" d="M181.7,212.7c0-3.8,3-6.8,6.7-6.8h59c3.7,0,6.7,3,6.7,6.8v27.2c0,3.8-3,6.8-6.7,6.8h-59c-3.7,0-6.7-3-6.7-6.8v-27.2Z"/>
  <g class="st3">
    <g class="st3">
      <text class="st4" transform="translate(60.3 256.5) scale(.9 1)"><tspan x="0" y="0">Statistical analysis on editing outcome</tspan></text>
    </g>
  </g>
  <g class="st3">
    <text class="st4" transform="translate(29.2 217.5) scale(.9 1)"><tspan x="0" y="0">Estimate</tspan></text>
  </g>
  <g class="st3">
    <text class="st4" transform="translate(17 228.3) scale(.9 1)"><tspan x="0" y="0">indel proportion</tspan></text>
  </g>
  <g class="st3">
    <text class="st4" transform="translate(18.8 239.1) scale(.9 1)"><tspan x="0" y="0">for each target</tspan></text>
  </g>
  <g class="st3">
    <g class="st3">
      <text class="st4" transform="translate(108.4 223.3) scale(.9 1)"><tspan x="0" y="0">Monte Carlo</tspan></text>
    </g>
    <g class="st3">
      <text class="st4" transform="translate(103.5 234) scale(.9 1)"><tspan x="0" y="0">power analysis</tspan></text>
    </g>
  </g>
  <g class="st3">
    <g class="st3">
      <text class="st4" transform="translate(199.6 217.8) scale(.9 1)"><tspan x="0" y="0">Annotate</tspan></text>
    </g>
    <g class="st3">
      <text class="st4" transform="translate(191.5 228.6) scale(.9 1)"><tspan x="0" y="0">significant off-</tspan></text>
    </g>
    <g class="st3">
      <text class="st4" transform="translate(197 239.4) scale(.9 1)"><tspan x="0" y="0">target sites</tspan></text>
    </g>
  </g>
  <path class="st7" d="M1,4.7C1,2.4,3.1.6,5.7.6h251.2c2.6,0,4.7,1.8,4.7,4.1v52.4c0,2.3-2.1,4.1-4.7,4.1H5.7c-2.6,0-4.7-1.8-4.7-4.1V4.7Z"/>
  <path class="st2" d="M.6,4.5C.6,2.3,2.7.4,5.3.4h251.9c2.6,0,4.7,1.8,4.7,4.1v52.5c0,2.3-2.1,4.1-4.7,4.1H5.3c-2.6,0-4.7-1.8-4.7-4.1,0,0,0-52.5,0-52.5Z"/>
  <path class="st0" d="M9.6,12.4c0-3.8,3-6.8,6.7-6.8h59c3.7,0,6.7,3,6.7,6.8v27.2c0,3.8-3,6.8-6.7,6.8H16.3c-3.7,0-6.7-3-6.7-6.8V12.4h0Z"/>
  <path class="st0" d="M95.5,12.4c0-3.8,3-6.8,6.7-6.8h59c3.7,0,6.7,3,6.7,6.8v27.2c0,3.8-3,6.8-6.7,6.8h-59c-3.7,0-6.7-3-6.7-6.8,0,0,0-27.2,0-27.2Z"/>
  <path class="st0" d="M179.1,12.4c0-3.8,3-6.8,6.7-6.8h59c3.7,0,6.7,3,6.7,6.8v27.2c0,3.8-3,6.8-6.7,6.8h-59c-3.7,0-6.7-3-6.7-6.8V12.4Z"/>
  <g class="st3">
    <g class="st3">
      <text class="st4" transform="translate(122.9 56.4) scale(.9 1)"><tspan x="0" y="0">Input</tspan></text>
    </g>
  </g>
  <g class="st3">
    <g class="st3">
      <text class="st4" transform="translate(119.6 17.6) scale(.9 1)"><tspan x="0" y="0">Edited</tspan></text>
    </g>
    <g class="st3">
      <text class="st4" transform="translate(112.9 28.4) scale(.9 1)"><tspan x="0" y="0">integrants</tspan></text>
    </g>
    <g class="st3">
      <text class="st4" transform="translate(114.6 39.2) scale(.9 1)"><tspan x="0" y="0">(FASTQ)</tspan></text>
    </g>
  </g>
  <g class="st3">
    <g class="st3">
      <text class="st4" transform="translate(21.4 23) scale(.9 1)"><tspan x="0" y="0">Plasmid pool</tspan></text>
    </g>
    <g class="st3">
      <text class="st4" transform="translate(28.8 33.8) scale(.9 1)"><tspan x="0" y="0">(FASTQ)</tspan></text>
    </g>
  </g>
  <g class="st3">
    <g class="st3">
      <text class="st4" transform="translate(198.2 17.6) scale(.9 1)"><tspan x="0" y="0">Unedited</tspan></text>
    </g>
    <g class="st3">
      <text class="st4" transform="translate(196.5 28.4) scale(.9 1)"><tspan x="0" y="0">integrants</tspan></text>
    </g>
    <g class="st3">
      <text class="st4" transform="translate(198.2 39.2) scale(.9 1)"><tspan x="0" y="0">(FASTQ)</tspan></text>
    </g>
  </g>
  <g>
    <line class="st1" x1="131" y1="128.4" x2="131" y2="129.9"/>
    <polygon points="128.6 129.1 131 133.5 133.5 129.1 128.6 129.1"/>
  </g>
  <g>
    <line class="st1" x1="131" y1="194.8" x2="131" y2="196.6"/>
    <polygon points="128.6 195.8 131 200.1 133.5 195.8 128.6 195.8"/>
  </g>
  <g>
    <line class="st1" x1="131" y1="61.5" x2="131" y2="63.3"/>
    <polygon points="128.6 62.6 131 66.9 133.5 62.6 128.6 62.6"/>
  </g>
  <g>
    <line class="st1" x1="81.6" y1="92.8" x2="89.9" y2="92.8"/>
    <polygon points="88.7 94.5 95.2 92.8 88.7 91.1 88.7 94.5"/>
  </g>
  <g>
    <line class="st1" x1="81.6" y1="159.5" x2="89.9" y2="159.5"/>
    <polygon points="88.7 161.3 95.2 159.5 88.7 157.8 88.7 161.3"/>
  </g>
  <g>
    <line class="st1" x1="81.6" y1="226.3" x2="89.9" y2="226.3"/>
    <polygon points="88.7 228 95.2 226.3 88.7 224.6 88.7 228"/>
  </g>
  <g>
    <line class="st1" x1="168" y1="93.6" x2="176.3" y2="93.6"/>
    <polygon points="175.1 95.3 181.6 93.6 175.1 91.8 175.1 95.3"/>
  </g>
  <g>
    <line class="st1" x1="168" y1="160.3" x2="176.3" y2="160.3"/>
    <polygon points="175.1 162.1 181.6 160.3 175.1 158.6 175.1 162.1"/>
  </g>
  <g>
    <line class="st1" x1="168" y1="227.1" x2="176.3" y2="227.1"/>
    <polygon points="175.1 228.8 181.6 227.1 175.1 225.3 175.1 228.8"/>
  </g>
  <g>
    <line class="st1" x1="131" y1="261.7" x2="131" y2="263.5"/>
    <polygon points="128.6 262.8 131 267.1 133.5 262.8 128.6 262.8"/>
  </g>
</svg>